<svg width="200" height="200" viewBox="0 0 200 200" fill="none" xmlns="http://www.w3.org/2000/svg">
<path fill-rule="evenodd" clip-rule="evenodd" d="M0 146.657V180C0 191.046 8.95431 200 20 200H180C191.046 200 200 191.046 200 180V20C200 8.95431 191.046 0 180 0H146.656C149.561 8.65372 156.05 13.7565 163.053 19.2638C164.623 20.499 166.22 21.7545 167.808 23.0749L157.937 30.1681C156.496 31.2032 155.205 32.2892 154.097 33.3966C150.031 37.4625 148.223 41.9449 148.407 47.5039C148.651 54.8681 151.91 60.6746 158.663 65.7776L167.283 72.2899L159.644 79.9287C150.888 88.6847 146.328 100.741 146.093 115.763C145.909 127.481 148.544 136.697 148.662 137.1L153.838 153.838L137.1 148.662C136.697 148.545 127.481 145.909 115.763 146.093C100.741 146.329 88.6842 150.888 79.9284 159.644L72.2896 167.283L65.7771 158.664C60.6737 151.91 54.8672 148.651 47.5034 148.408C41.9448 148.224 37.462 150.032 33.3961 154.098C32.2887 155.205 31.2023 156.497 30.1676 157.937L23.0744 167.808C21.7537 166.22 20.4979 164.623 19.2626 163.053C13.7555 156.05 8.65315 149.562 0 146.657ZM135.933 0C136.804 5.30627 139.199 10.6249 143.989 15.415C145.761 17.1867 147.737 18.7559 149.737 20.3435C150.642 21.0624 151.552 21.785 152.45 22.5319C150.625 23.8427 148.95 25.2455 147.449 26.7469C141.912 32.2842 138.724 39.17 139.01 47.8136C139.365 58.5594 144.473 66.8403 152.995 73.279C128.373 97.9013 138.674 136.365 139.596 139.595C136.365 138.673 97.9019 128.372 73.2796 152.994C66.8408 144.473 58.56 139.364 47.8142 139.009C39.1706 138.723 32.2848 141.911 26.7474 147.448C25.2461 148.95 23.843 150.625 22.5322 152.45C21.7853 151.552 21.0627 150.642 20.3438 149.736C18.7563 147.737 17.1872 145.76 15.4154 143.989C10.6251 139.198 5.3064 136.804 0 135.933V111.391C2.87498 109.64 5.8542 108.044 8.93022 106.602C16.8491 102.888 24.8439 99.1952 33.5426 97.9298C47.4699 95.9036 62.5358 102.16 62.5358 102.16C62.5358 102.16 66.8243 91.2759 66.0301 90.4817C62.1811 86.6327 50.2517 74.699 50.2517 74.699L59.7724 74.6988L74.6987 59.7725L74.6989 50.2518C74.6989 50.2518 86.6324 62.181 90.4817 66.0302C91.2757 66.8242 102.16 62.5359 102.16 62.5359C102.16 62.5359 95.9037 47.4702 97.9297 33.5426C99.1952 24.8439 102.889 16.8493 106.602 8.9303C108.045 5.85425 109.64 2.875 111.391 0H135.933ZM100.579 0C99.6831 1.65993 98.8519 3.30979 98.0879 4.93887L98.0876 4.93962C94.3504 12.9088 90.1148 21.9409 88.6239 32.1897C87.6409 38.9473 88.2549 45.8117 89.3324 51.5858L81.3462 43.6023L65.2954 27.558L65.2954 55.8781L55.8774 65.2961H27.5573L43.6016 81.347L51.5851 89.3331C45.811 88.2556 38.9466 87.6416 32.189 88.6246C21.941 90.1154 12.9093 94.3507 4.9407 98.0875L4.93814 98.0887C3.3093 98.8525 1.65968 99.6836 0 100.579V20C0 8.95431 8.95431 0 20 0H100.579Z" fill="#171717"/>
</svg>
